<?xml version="1.0" encoding="UTF-8"?>
<svg id="Layer_1" data-name="Layer 1" xmlns="http://www.w3.org/2000/svg" viewBox="0 0 192 192">
  <defs>
    <style>
      .cls-1 {
        fill: #e37626;
        stroke-width: 0px;
      }
    </style>
  </defs>
  <path class="cls-1" d="m157,2.02c-13.15,16.05-26.31,32.1-39.46,48.15-7.09,8.66-14.18,17.31-21.25,25.99-.82,1.01-1.82,1.91-2.36,3.19.65.92,1.73,1.01,2.64,1.37,12.8,4.91,25.59,9.83,38.4,14.7,4.51,1.71,7.64,4.64,8.47,9.52.94,5.49-1.01,9.8-5.71,12.78-9,5.73-18.04,11.42-27.06,17.12-28.02,17.69-56.05,35.39-84.08,53.07-.83.52-1.58,1.22-3.28,1.52,24.98-28.9,49.58-57.37,74.19-85.84-.96-1.03-2.13-1.13-3.16-1.49-13.52-4.71-27.03-9.42-40.57-14.06-4.22-1.45-7.3-3.99-8.61-8.33-1.7-5.61.41-10.97,5.59-14.17,6.31-3.9,12.69-7.7,19.04-11.54,28.01-16.93,56.02-33.87,84.04-50.77.96-.58,1.79-1.76,3.21-1.16l-.06-.04Z"/>
</svg>